<svg xmlns="http://www.w3.org/2000/svg" xmlns:xlink="http://www.w3.org/1999/xlink" version="1.1" width="256" height="256" viewBox="0 0 256 256" xml:space="preserve">

<defs>
</defs>
<g style="stroke: none; stroke-width: 0; stroke-dasharray: none; stroke-linecap: butt; stroke-linejoin: miter; stroke-miterlimit: 10; fill: none; fill-rule: nonzero; opacity: 1;" transform="translate(1.4065934065934016 1.4065934065934016) scale(2.81 2.81)" >
	<path d="M 72.674 33.813 l -0.002 -0.001 c -1.95 -0.808 -2.102 -2.612 -2.102 -3.146 c -0.001 -0.534 0.151 -2.339 2.102 -3.146 c 0.983 -0.407 1.748 -1.173 2.155 -2.155 c 0.407 -0.982 0.407 -2.064 0 -3.047 l -2.593 -6.261 c -0.841 -2.027 -3.172 -2.995 -5.203 -2.154 c -1.952 0.809 -3.334 -0.361 -3.711 -0.738 c -0.378 -0.378 -1.546 -1.761 -0.738 -3.712 c 0.406 -0.982 0.406 -2.064 -0.001 -3.047 c -0.407 -0.983 -1.173 -1.748 -2.154 -2.155 l -6.261 -2.593 c -2.027 -0.839 -4.361 0.128 -5.202 2.156 c -0.808 1.948 -2.612 2.1 -3.146 2.1 c -0.534 0 -2.339 -0.151 -3.146 -2.101 C 42.265 2.83 41.5 2.064 40.517 1.657 c -0.982 -0.407 -2.064 -0.407 -3.048 0 L 31.21 4.25 c -0.983 0.407 -1.748 1.172 -2.156 2.155 c -0.407 0.983 -0.407 2.065 0 3.047 c 0.808 1.95 -0.361 3.334 -0.738 3.711 c -0.377 0.378 -1.759 1.548 -3.711 0.739 c -0.982 -0.406 -2.065 -0.406 -3.048 0 c -0.983 0.407 -1.748 1.173 -2.155 2.155 l -2.593 6.259 c -0.407 0.983 -0.407 2.065 0 3.048 c 0.407 0.983 1.173 1.748 2.155 2.155 c 1.95 0.808 2.102 2.613 2.102 3.146 c 0 0.534 -0.152 2.338 -2.103 3.146 c -2.028 0.841 -2.994 3.175 -2.154 5.202 l 2.593 6.26 c 0.407 0.983 1.173 1.748 2.155 2.155 c 0.982 0.406 2.064 0.407 3.047 0 c 1.95 -0.806 3.333 0.361 3.711 0.739 c 0.377 0.377 1.546 1.761 0.738 3.711 c -0.84 2.027 0.126 4.361 2.155 5.203 l 6.26 2.593 c 0.492 0.203 1.008 0.305 1.524 0.305 s 1.033 -0.102 1.524 -0.306 c 0.983 -0.407 1.748 -1.173 2.155 -2.154 c 0.808 -1.951 2.613 -2.102 3.146 -2.102 l 0 0 c 0.534 0 2.338 0.151 3.146 2.103 c 0.841 2.027 3.175 2.991 5.202 2.153 l 6.262 -2.593 c 2.027 -0.841 2.993 -3.174 2.153 -5.202 c -0.808 -1.95 0.361 -3.334 0.739 -3.711 c 0.378 -0.378 1.758 -1.548 3.712 -0.738 c 2.029 0.837 4.361 -0.128 5.202 -2.156 l 2.593 -6.26 C 75.667 36.986 74.701 34.653 72.674 33.813 z M 45.818 41.658 c -6.061 0 -10.993 -4.931 -10.993 -10.992 s 4.931 -10.992 10.993 -10.992 s 10.993 4.931 10.993 10.992 S 51.88 41.658 45.818 41.658 z" style="stroke: none; stroke-width: 1; stroke-dasharray: none; stroke-linecap: butt; stroke-linejoin: miter; stroke-miterlimit: 10; fill: rgb(255,226,122); fill-rule: nonzero; opacity: 1;" transform=" matrix(1 0 0 1 0 0) " stroke-linecap="round" />
	<path d="M 63.187 74.772 c 0.077 0.09 0.156 0.176 0.232 0.267 l 6.958 -4.808 l -6.153 -19.865 c -4.958 -2.268 -12.944 -3.741 -20.166 -3.462 c -2.236 0 -4.807 1.167 -7.143 2.865 H 25.96 l -6.012 19.409 C 30.41 81.452 40.915 92.491 47.419 87.35 l 0.659 0.668 c 1.28 1.296 3.388 1.309 4.684 0.029 c 1.296 -1.28 1.309 -3.388 0.029 -4.684 l 1.988 2.013 c 1.28 1.296 3.388 1.309 4.684 0.029 c 1.263 -1.247 1.298 -3.275 0.115 -4.577 l 0.117 0.119 c 1.28 1.296 3.59 1.498 4.886 0.218 c 1.296 -1.28 1.309 -3.388 0.029 -4.684 C 64.142 75.902 63.666 75.335 63.187 74.772 z M 45.437 58.61 c 0.174 0.12 0.342 0.247 0.515 0.368 l -0.637 -0.293 C 45.355 58.659 45.397 58.637 45.437 58.61 z" style="stroke: none; stroke-width: 1; stroke-dasharray: none; stroke-linecap: butt; stroke-linejoin: miter; stroke-miterlimit: 10; fill: rgb(255,200,159); fill-rule: nonzero; opacity: 1;" transform=" matrix(1 0 0 1 0 0) " stroke-linecap="round" />
	<path d="M 8.994 43.738 v 28.103 h 10.13 l 7.852 -25.349 C 20.878 45.085 14.858 44.029 8.994 43.738 z" style="stroke: none; stroke-width: 1; stroke-dasharray: none; stroke-linecap: butt; stroke-linejoin: miter; stroke-miterlimit: 10; fill: rgb(74,128,170); fill-rule: nonzero; opacity: 1;" transform=" matrix(1 0 0 1 0 0) " stroke-linecap="round" />
	<path d="M 81.006 43.738 v 28.103 h -10.13 l -7.852 -25.349 C 69.122 45.085 75.142 44.029 81.006 43.738 z" style="stroke: none; stroke-width: 1; stroke-dasharray: none; stroke-linecap: butt; stroke-linejoin: miter; stroke-miterlimit: 10; fill: rgb(74,128,170); fill-rule: nonzero; opacity: 1;" transform=" matrix(1 0 0 1 0 0) " stroke-linecap="round" />
	<path d="M 43.729 89.656 c -6.955 0 -15.869 -9.654 -24.542 -19.83 c -0.358 -0.42 -0.308 -1.052 0.113 -1.409 c 0.419 -0.36 1.051 -0.31 1.41 0.112 c 9.526 11.176 20.185 22.705 26.09 18.037 c 0.436 -0.344 1.063 -0.27 1.404 0.164 c 0.343 0.434 0.27 1.062 -0.164 1.404 C 46.716 89.181 45.27 89.656 43.729 89.656 z" style="stroke: none; stroke-width: 1; stroke-dasharray: none; stroke-linecap: butt; stroke-linejoin: miter; stroke-miterlimit: 10; fill: rgb(0,0,0); fill-rule: nonzero; opacity: 1;" transform=" matrix(1 0 0 1 0 0) " stroke-linecap="round" />
	<path d="M 50.435 90 c -1.113 0 -2.226 -0.428 -3.067 -1.279 l -10.95 -11.085 c -0.388 -0.394 -0.384 -1.026 0.009 -1.415 c 0.393 -0.388 1.025 -0.383 1.414 0.009 l 10.95 11.085 c 0.895 0.906 2.363 0.916 3.27 0.02 c 0.906 -0.895 0.915 -2.362 0.019 -3.27 l -8.96 -9.07 c -0.388 -0.394 -0.384 -1.026 0.009 -1.414 c 0.393 -0.39 1.025 -0.384 1.414 0.008 l 8.96 9.071 c 1.671 1.692 1.654 4.429 -0.036 6.098 C 52.627 89.586 51.53 89.999 50.435 90 z" style="stroke: none; stroke-width: 1; stroke-dasharray: none; stroke-linecap: butt; stroke-linejoin: miter; stroke-miterlimit: 10; fill: rgb(0,0,0); fill-rule: nonzero; opacity: 1;" transform=" matrix(1 0 0 1 0 0) " stroke-linecap="round" />
	<path d="M 57.136 87.358 c -1.113 0 -2.226 -0.427 -3.067 -1.279 l -1.989 -2.015 c -0.388 -0.393 -0.384 -1.025 0.01 -1.414 c 0.392 -0.388 1.024 -0.384 1.414 0.01 l 1.988 2.014 c 0.431 0.437 1.01 0.679 1.631 0.683 c 0.614 -0.006 1.202 -0.232 1.639 -0.663 c 0.907 -0.896 0.917 -2.363 0.021 -3.271 l -8.96 -9.07 c -0.389 -0.394 -0.385 -1.026 0.008 -1.414 c 0.394 -0.39 1.026 -0.384 1.414 0.008 l 8.961 9.071 c 1.671 1.692 1.654 4.429 -0.037 6.098 C 59.329 86.944 58.232 87.358 57.136 87.358 z" style="stroke: none; stroke-width: 1; stroke-dasharray: none; stroke-linecap: butt; stroke-linejoin: miter; stroke-miterlimit: 10; fill: rgb(0,0,0); fill-rule: nonzero; opacity: 1;" transform=" matrix(1 0 0 1 0 0) " stroke-linecap="round" />
	<path d="M 62.347 83.027 c -0.09 0 -0.181 -0.003 -0.272 -0.008 c -1.171 -0.068 -2.298 -0.568 -3.091 -1.372 c -0.388 -0.393 -0.384 -1.025 0.01 -1.414 c 0.392 -0.388 1.024 -0.385 1.414 0.01 c 0.449 0.455 1.1 0.739 1.784 0.779 c 0.673 0.046 1.276 -0.164 1.687 -0.57 c 0.907 -0.896 0.916 -2.363 0.021 -3.269 c -5.549 -6.826 -11.75 -12.647 -18.498 -17.379 c -1.197 0.652 -2.572 0.932 -4.159 0.844 c -5.18 5.316 -8.47 4.026 -11.251 1.824 c -0.029 -0.023 -0.057 -0.048 -0.083 -0.074 c -1.222 -1.214 -1.388 -3.112 -0.467 -5.346 c 2.068 -5.017 9.218 -11.146 14.616 -11.146 c 7.054 -0.273 15.343 1.155 20.583 3.553 c 0.502 0.229 0.723 0.823 0.493 1.325 c -0.229 0.501 -0.821 0.723 -1.325 0.493 c -4.981 -2.279 -12.906 -3.631 -19.712 -3.372 c -4.511 0.001 -11.023 5.583 -12.806 9.909 c -0.413 1.001 -0.744 2.35 -0.007 3.131 c 1.787 1.414 4.022 3.105 8.835 -2.014 c 0.212 -0.227 0.516 -0.339 0.827 -0.311 c 1.594 0.157 2.88 -0.115 3.925 -0.833 c 0.341 -0.235 0.792 -0.236 1.133 0.001 c 7.113 4.905 13.634 10.982 19.383 18.063 c 1.606 1.618 1.59 4.353 -0.102 6.024 C 64.536 82.614 63.478 83.027 62.347 83.027 z" style="stroke: none; stroke-width: 1; stroke-dasharray: none; stroke-linecap: butt; stroke-linejoin: miter; stroke-miterlimit: 10; fill: rgb(0,0,0); fill-rule: nonzero; opacity: 1;" transform=" matrix(1 0 0 1 0 0) " stroke-linecap="round" />
	<path d="M 36.91 50.768 H 25.96 c -0.552 0 -1 -0.447 -1 -1 s 0.448 -1 1 -1 h 10.95 c 0.552 0 1 0.447 1 1 S 37.463 50.768 36.91 50.768 z" style="stroke: none; stroke-width: 1; stroke-dasharray: none; stroke-linecap: butt; stroke-linejoin: miter; stroke-miterlimit: 10; fill: rgb(0,0,0); fill-rule: nonzero; opacity: 1;" transform=" matrix(1 0 0 1 0 0) " stroke-linecap="round" />
	<path d="M 63.1 75.662 c -0.338 0 -0.667 -0.171 -0.855 -0.48 c -0.287 -0.472 -0.138 -1.087 0.335 -1.374 l 7.279 -4.431 c 0.474 -0.287 1.088 -0.136 1.374 0.335 c 0.287 0.472 0.138 1.087 -0.335 1.374 l -7.279 4.431 C 63.456 75.615 63.277 75.662 63.1 75.662 z" style="stroke: none; stroke-width: 1; stroke-dasharray: none; stroke-linecap: butt; stroke-linejoin: miter; stroke-miterlimit: 10; fill: rgb(0,0,0); fill-rule: nonzero; opacity: 1;" transform=" matrix(1 0 0 1 0 0) " stroke-linecap="round" />
	<path d="M 19.123 72.841 H 8.994 c -0.552 0 -1 -0.447 -1 -1 V 43.738 c 0 -0.274 0.112 -0.536 0.311 -0.725 c 0.199 -0.188 0.467 -0.29 0.739 -0.274 c 5.314 0.263 11.083 1.146 18.157 2.778 c 0.271 0.063 0.503 0.235 0.642 0.476 c 0.139 0.241 0.171 0.529 0.088 0.794 l -7.852 25.349 C 19.949 72.556 19.562 72.841 19.123 72.841 z M 9.994 70.841 h 8.392 L 25.7 47.227 c -6.022 -1.35 -11.067 -2.131 -15.706 -2.431 V 70.841 z" style="stroke: none; stroke-width: 1; stroke-dasharray: none; stroke-linecap: butt; stroke-linejoin: miter; stroke-miterlimit: 10; fill: rgb(0,0,0); fill-rule: nonzero; opacity: 1;" transform=" matrix(1 0 0 1 0 0) " stroke-linecap="round" />
	<path d="M 81.007 72.841 H 70.876 c -0.438 0 -0.825 -0.285 -0.955 -0.704 L 62.07 46.788 c -0.082 -0.266 -0.051 -0.554 0.088 -0.794 c 0.139 -0.241 0.371 -0.414 0.643 -0.476 c 7.073 -1.632 12.843 -2.515 18.157 -2.778 c 0.272 -0.014 0.541 0.085 0.739 0.274 c 0.198 0.189 0.311 0.451 0.311 0.725 v 28.103 C 82.007 72.394 81.559 72.841 81.007 72.841 z M 71.613 70.841 h 8.393 V 44.796 c -4.639 0.3 -9.685 1.081 -15.707 2.431 L 71.613 70.841 z" style="stroke: none; stroke-width: 1; stroke-dasharray: none; stroke-linecap: butt; stroke-linejoin: miter; stroke-miterlimit: 10; fill: rgb(0,0,0); fill-rule: nonzero; opacity: 1;" transform=" matrix(1 0 0 1 0 0) " stroke-linecap="round" />
	<path d="M 45.819 42.79 c -6.685 0 -12.124 -5.439 -12.124 -12.124 c 0 -6.685 5.439 -12.124 12.124 -12.124 c 6.685 0 12.124 5.439 12.124 12.124 C 57.943 37.351 52.504 42.79 45.819 42.79 z M 45.819 20.542 c -5.582 0 -10.124 4.541 -10.124 10.124 S 40.236 40.79 45.819 40.79 s 10.124 -4.542 10.124 -10.124 S 51.401 20.542 45.819 20.542 z M 16.463 40.114 c -0.393 0 -0.765 -0.233 -0.924 -0.618 c -1.06 -2.561 0.16 -5.508 2.72 -6.569 c 1.365 -0.565 1.512 -1.769 1.512 -2.26 c 0 -0.492 -0.146 -1.695 -1.509 -2.26 c -1.241 -0.514 -2.207 -1.48 -2.722 -2.722 c -0.514 -1.241 -0.515 -2.608 0 -3.849 l 2.624 -6.336 c 1.063 -2.561 4.012 -3.781 6.572 -2.721 c 1.363 0.564 2.317 -0.182 2.664 -0.529 c 0.349 -0.349 1.096 -1.304 0.531 -2.667 c -0.514 -1.242 -0.514 -2.608 0 -3.849 c 0.514 -1.241 1.481 -2.208 2.721 -2.722 l 6.336 -2.624 c 2.562 -1.059 5.508 0.161 6.571 2.722 c 0.564 1.362 1.768 1.509 2.26 1.509 c 0.492 0 1.696 -0.147 2.26 -1.509 c 0.513 -1.241 1.479 -2.208 2.722 -2.723 c 1.238 -0.515 2.605 -0.516 3.849 0 l 6.335 2.623 c 1.241 0.515 2.208 1.481 2.722 2.722 c 0.515 1.242 0.515 2.609 0 3.849 c -0.564 1.363 0.183 2.318 0.53 2.666 c 0.348 0.347 1.3 1.097 2.665 0.531 c 1.24 -0.514 2.609 -0.514 3.849 0 c 1.243 0.514 2.21 1.481 2.723 2.722 l 2.624 6.334 c 0.515 1.241 0.515 2.609 0 3.85 c -0.515 1.242 -1.481 2.208 -2.723 2.722 c -1.361 0.564 -1.509 1.768 -1.509 2.26 c 0 0.491 0.147 1.695 1.512 2.26 c 2.561 1.062 3.781 4.01 2.72 6.571 c -0.213 0.51 -0.8 0.75 -1.307 0.541 c -0.511 -0.212 -0.753 -0.797 -0.541 -1.307 c 0.64 -1.542 -0.095 -3.317 -1.638 -3.957 c -2.548 -1.055 -2.746 -3.411 -2.746 -4.108 c 0 -1.436 0.721 -3.27 2.744 -4.108 c 0.748 -0.309 1.33 -0.892 1.64 -1.64 c 0.31 -0.748 0.31 -1.571 0 -2.319 l -2.624 -6.334 c -0.31 -0.748 -0.892 -1.33 -1.64 -1.64 c -0.748 -0.31 -1.571 -0.311 -2.319 0 c -2.549 1.057 -4.352 -0.471 -4.846 -0.965 c -1.015 -1.015 -1.801 -2.821 -0.963 -4.845 c 0.31 -0.747 0.31 -1.57 0 -2.318 c -0.31 -0.748 -0.892 -1.33 -1.64 -1.64 l -6.334 -2.623 c -0.748 -0.31 -1.571 -0.31 -2.319 0 c -0.748 0.31 -1.33 0.892 -1.64 1.639 c -1.055 2.547 -3.411 2.745 -4.108 2.745 c -1.436 0 -3.269 -0.721 -4.107 -2.743 c -0.64 -1.543 -2.416 -2.278 -3.958 -1.64 L 31.418 4.86 c -0.747 0.31 -1.329 0.892 -1.639 1.64 c -0.31 0.748 -0.31 1.57 0 2.318 c 0.838 2.023 0.052 3.83 -0.964 4.846 c -1.012 1.017 -2.817 1.805 -4.845 0.963 c -1.541 -0.639 -3.318 0.096 -3.959 1.639 l -2.624 6.335 c -0.31 0.748 -0.31 1.571 0 2.318 c 0.31 0.748 0.893 1.33 1.64 1.64 c 2.025 0.838 2.745 2.672 2.744 4.109 c 0 0.696 -0.198 3.052 -2.744 4.106 c -1.544 0.64 -2.279 2.415 -1.641 3.958 c 0.211 0.51 -0.031 1.095 -0.541 1.306 C 16.72 40.089 16.59 40.114 16.463 40.114 z" style="stroke: none; stroke-width: 1; stroke-dasharray: none; stroke-linecap: butt; stroke-linejoin: miter; stroke-miterlimit: 10; fill: rgb(0,0,0); fill-rule: nonzero; opacity: 1;" transform=" matrix(1 0 0 1 0 0) " stroke-linecap="round" />
</g>
</svg>