<?xml version="1.0" encoding="UTF-8"?><svg id="Layer_1" xmlns="http://www.w3.org/2000/svg" viewBox="0 0 678.53 338.98"><defs><style>.cls-1{letter-spacing:-.09em;}.cls-2{letter-spacing:0em;}.cls-3{fill:#002e5e;}.cls-4{fill:#ffcf01;}.cls-5{stroke:#000006;stroke-miterlimit:10;}.cls-5,.cls-6{fill:#000006;}.cls-6{font-family:ArticulatCF-Bold, 'Articulat CF';font-size:63.5px;}.cls-7{letter-spacing:-.02em;}.cls-8{letter-spacing:0em;}.cls-9{letter-spacing:0em;}</style></defs><path id="C" class="cls-5" d="M143.92,31.33L29.52,99.49c-.62,.37-1.01,1.04-1.02,1.76l-1.7,129.94c0,.72,.35,1.39,.95,1.78l117.73,75.95c.69,.44,1.58,.44,2.26,0l120.72-74.77c1.39-.9,3.22,.09,3.22,1.74v23.36c0,.7-.35,1.36-.94,1.74l-122.79,77.14c-.69,.45-1.57,.45-2.27,.01L1.46,245.62c-.6-.38-.96-1.04-.96-1.75V88.24c0-.73,.39-1.41,1.02-1.79L145.02,.79c.66-.39,1.47-.39,2.13,0l141.65,84.87c1.36,.81,1.36,2.78,0,3.59l-21.37,12.57c-.6,.35-1.34,.35-1.94,0L146.04,31.31c-.65-.38-1.46-.38-2.11,.01Z"/><path id="M" class="cls-3" d="M37.83,229.55l18.65,12.59c1.76,1.04,3.98-.23,3.98-2.27v-52.33c0-2.06,2.26-3.32,4.01-2.25l80.28,58.37c.83,.51,1.86,.52,2.7,.03l83.29-58.09c1.76-1.02,3.97,.25,3.96,2.29l-.25,51.66c-.01,2.1,2.31,3.37,4.07,2.23l18.72-11.72c.75-.48,1.2-1.31,1.2-2.2l.46-87.71c.01-2.07-2.25-3.34-4.02-2.26l-108.2,66.44c-.62,.38-1.41,.38-2.03-.01L41.48,136.21c-1.75-1.1-4.02,.14-4.04,2.21l-.91,88.83c0,.94,.48,1.82,1.3,2.3Z"/><path class="cls-4" d="M53.23,94.98l-14.63,8.82c-.44,.27-.72,.75-.72,1.27v18.69c0,.51,.26,.98,.69,1.25l106.42,70.57c.47,.3,1.08,.31,1.56,.02l111.65-70.59c.44-.27,.72-.75,.72-1.27v-16.52c0-.52-.27-1-.71-1.27l-15.88-9.5c-.61-.37-1.38-.37-1.99,0l-93.45,53.32c-.48,.29-1.09,.29-1.57-.02L54.8,95c-.47-.3-1.08-.31-1.56-.02Z"/><text class="cls-6" transform="translate(289.82 172.14)"><tspan x="0" y="0">Michig</tspan><tspan class="cls-9" x="197.15" y="0">a</tspan><tspan class="cls-2" x="232.83" y="0">n</tspan><tspan class="cls-1" x="0" y="63.5">V</tspan><tspan class="cls-2" x="41.72" y="63.5">e</tspan><tspan class="cls-8" x="77.4" y="63.5">n</tspan><tspan x="114.93" y="63.5">tu</tspan><tspan class="cls-7" x="177.21" y="63.5">r</tspan><tspan class="cls-2" x="202.23" y="63.5">e Club</tspan></text></svg>