<?xml version="1.0" encoding="UTF-8"?><svg id="Layer_1" xmlns="http://www.w3.org/2000/svg" viewBox="0 0 991.74 1158.37"><defs><style>.cls-1{fill:#002e5e;}.cls-2{fill:#ffcf01;}.cls-3{fill:#000000;<stroke: id="000000"></stroke:>;stroke-miterlimit:10;}</style></defs><path id="C" class="cls-3" d="M491.64,106.06L99.86,339.47c-2.13,1.27-3.45,3.55-3.48,6.03l-5.82,444.97c-.03,2.46,1.2,4.75,3.26,6.09l403.17,260.09c2.36,1.52,5.4,1.52,7.76-.02l413.38-256.04c4.74-3.09,11.02,.31,11.02,5.97v80.01c0,2.4-1.21,4.65-3.22,5.96l-420.49,264.17c-2.35,1.54-5.39,1.56-7.76,.04L3.78,839.88c-2.04-1.31-3.28-3.57-3.28-6V300.94c0-2.51,1.32-4.84,3.48-6.12L495.4,1.51c2.24-1.34,5.04-1.34,7.29-.01l485.06,290.62c4.67,2.77,4.66,9.53-.02,12.28l-73.17,43.04c-2.05,1.21-4.59,1.21-6.65,.01L498.88,106.02c-2.24-1.3-5.01-1.29-7.24,.04Z"/><path id="M" class="cls-1" d="M128.32,784.86l63.86,43.11c6.02,3.55,13.62-.78,13.62-7.78v-179.21c0-7.05,7.73-11.38,13.74-7.7l274.92,199.87c2.83,1.73,6.38,1.77,9.25,.11l285.2-198.9c6.04-3.51,13.6,.87,13.56,7.85l-.85,176.91c-.03,7.18,7.92,11.53,13.94,7.62l64.09-40.15c2.55-1.66,4.1-4.49,4.12-7.53l1.56-300.35c.04-7.08-7.72-11.45-13.75-7.74l-370.51,227.51c-2.14,1.31-4.83,1.3-6.96-.04L140.84,465.24c-5.98-3.76-13.77,.49-13.84,7.55l-3.12,304.2c-.03,3.23,1.66,6.23,4.44,7.87Z"/><path class="cls-2" d="M181.07,324.03l-50.1,30.22c-1.52,.92-2.45,2.57-2.45,4.35v63.99c0,1.74,.89,3.35,2.36,4.29l364.42,241.65c1.63,1.03,3.7,1.05,5.34,.06l382.33-241.72c1.52-.92,2.45-2.57,2.45-4.34v-56.56c0-1.78-.93-3.42-2.45-4.34l-54.39-32.54c-2.09-1.27-4.72-1.27-6.81,0l-320.02,182.6c-1.65,1.01-3.74,.98-5.37-.06L186.43,324.1c-1.63-1.04-3.7-1.07-5.35-.07Z"/></svg>